<?xml version="1.0" standalone="no"?>
<!DOCTYPE svg PUBLIC "-//W3C//DTD SVG 20010904//EN"
 "http://www.w3.org/TR/2001/REC-SVG-20010904/DTD/svg10.dtd">
<svg version="1.0" xmlns="http://www.w3.org/2000/svg"
 width="918.000000pt" height="918.000000pt" viewBox="0 0 918.000000 918.000000"
 preserveAspectRatio="xMidYMid meet">
<metadata>
Created by potrace 1.14, written by Peter Selinger 2001-2017
</metadata>
<g transform="translate(0.000000,918.000000) scale(0.100000,-0.100000)"
fill="#000000" stroke="none">
<path d="M4424 9076 c-104 -24 -200 -70 -479 -232 -149 -86 -880 -507 -1625
-936 -745 -429 -1378 -795 -1405 -814 -115 -75 -228 -217 -276 -343 -51 -137
-50 -59 -46 -2186 3 -2224 -5 -2010 78 -2183 45 -94 147 -209 239 -272 30 -20
343 -203 695 -405 352 -202 996 -573 1430 -823 435 -251 885 -510 1001 -577
149 -86 239 -131 310 -155 92 -31 109 -34 229 -34 107 -1 144 3 208 22 104 30
160 59 587 305 201 115 928 534 1615 930 688 396 1275 739 1305 762 148 114
239 264 276 453 12 62 14 386 14 2015 0 1859 -1 1946 -19 2032 -10 50 -30 116
-45 149 -53 119 -161 243 -276 318 -30 20 -561 328 -1180 684 -619 356 -1353
779 -1632 939 -595 343 -625 356 -823 361 -77 2 -142 -1 -181 -10z m501 -1526
c891 -101 1666 -577 2162 -1327 41 -62 73 -117 71 -123 -3 -9 -1266 -740
-1278 -740 -3 1 -30 38 -60 83 -77 117 -270 307 -396 390 -180 119 -364 192
-579 229 -165 28 -409 21 -565 -15 -452 -107 -806 -389 -1006 -802 -106 -219
-147 -398 -147 -645 0 -302 81 -570 252 -830 76 -117 278 -318 399 -398 166
-110 356 -188 557 -229 136 -27 425 -24 562 5 308 67 567 211 784 439 64 67
183 224 205 271 2 3 1264 -726 1277 -737 9 -9 -83 -156 -175 -281 -288 -386
-647 -685 -1073 -895 -281 -138 -568 -229 -872 -275 -178 -28 -520 -37 -699
-21 -922 86 -1716 565 -2226 1341 -492 747 -612 1696 -326 2554 275 824 907
1491 1721 1816 279 111 558 173 927 204 72 6 386 -3 485 -14z m1975 -2310 l0
-210 210 0 210 0 0 210 0 210 105 0 105 0 0 -210 0 -210 210 0 210 0 0 -100 0
-100 -210 0 -210 0 0 -215 0 -215 210 0 210 0 0 -100 0 -100 -210 0 -210 0 0
-210 0 -210 -105 0 -105 0 0 210 0 210 -210 0 -210 0 0 -210 0 -210 -105 0
-105 0 0 210 0 210 -210 0 -210 0 0 100 0 100 210 0 210 0 0 215 0 215 -210 0
-210 0 0 100 0 100 210 0 210 0 0 210 0 210 105 0 105 0 0 -210z"/>
<path d="M6900 4615 l0 -215 210 0 210 0 0 215 0 215 -210 0 -210 0 0 -215z"/>
</g>
</svg>
